<svg width="170" height="22" viewBox="0 0 170 22" fill="none" xmlns="http://www.w3.org/2000/svg">
<path d="M14.5004 12.8993H8.45854V9.15335H14.5004C15.3664 9.15335 16.1719 9.31447 16.9171 9.6367C17.6824 9.95893 18.347 10.402 18.9109 10.9659C19.4748 11.5298 19.9179 12.1944 20.2401 12.9597C20.5623 13.7049 20.7234 14.5104 20.7234 15.3764C20.7234 16.2424 20.5623 17.0581 20.2401 17.8234C19.9179 18.5685 19.4748 19.2231 18.9109 19.787C18.347 20.3509 17.6824 20.7939 16.9171 21.1162C16.1719 21.4384 15.3664 21.5995 14.5004 21.5995H10.543C9.09294 21.5995 7.72346 21.3175 6.43454 20.7536C5.14561 20.1897 4.02788 19.4345 3.08133 18.488C2.13478 17.5414 1.37955 16.4237 0.815646 15.1348C0.271882 13.8458 0 12.4764 0 11.0263C0 9.55614 0.271882 8.17659 0.815646 6.88767C1.37955 5.59875 2.13478 4.48102 3.08133 3.53446C4.04802 2.56777 5.17582 1.81255 6.46475 1.26878C7.75367 0.704879 9.13321 0.422927 10.6034 0.422927H18.2463V4.16885H10.6034C9.65684 4.16885 8.76064 4.35011 7.91478 4.71262C7.08907 5.07513 6.36405 5.56854 5.73973 6.19286C5.11541 6.79704 4.62199 7.52206 4.25948 8.36792C3.91711 9.19363 3.74593 10.0798 3.74593 11.0263C3.74593 11.9729 3.91711 12.859 4.25948 13.6847C4.62199 14.5104 5.11541 15.2355 5.73973 15.8598C6.36405 16.4841 7.08907 16.9775 7.91478 17.34C8.76064 17.6824 9.65684 17.8536 10.6034 17.8536H14.5004C15.3261 17.8536 15.9403 17.6018 16.3431 17.0983C16.766 16.5747 16.9775 16.0007 16.9775 15.3764C16.9775 14.7521 16.766 14.1882 16.3431 13.6847C15.9403 13.1611 15.3261 12.8993 14.5004 12.8993Z" fill="#226E83"/>
<path d="M44.8041 0C45.3277 0 45.7808 0.191324 46.1635 0.573972C46.5461 0.956621 46.7375 1.40976 46.7375 1.93338C46.7375 2.45701 46.5461 2.91014 46.1635 3.29279C45.7808 3.6553 45.3277 3.83656 44.8041 3.83656H25.9536C25.43 3.83656 24.9769 3.6553 24.5942 3.29279C24.2317 2.91014 24.0504 2.45701 24.0504 1.93338C24.0504 1.40976 24.2317 0.956621 24.5942 0.573972C24.9769 0.191324 25.43 0 25.9536 0H44.8041ZM44.8041 17.7327C45.3277 17.7327 45.7808 17.9241 46.1635 18.3067C46.5461 18.6692 46.7375 19.1123 46.7375 19.6359C46.7375 20.1797 46.5461 20.6429 46.1635 21.0255C45.7808 21.388 45.3277 21.5693 44.8041 21.5693H25.9536C25.43 21.5693 24.9769 21.388 24.5942 21.0255C24.2317 20.6429 24.0504 20.1797 24.0504 19.6359C24.0504 19.1123 24.2317 18.6692 24.5942 18.3067C24.9769 17.9241 25.43 17.7327 25.9536 17.7327H44.8041ZM44.8041 8.88147C45.3277 8.88147 45.7808 9.0728 46.1635 9.45545C46.5461 9.81795 46.7375 10.261 46.7375 10.7846C46.7375 11.3083 46.5461 11.7614 46.1635 12.1441C45.7808 12.5267 45.3277 12.718 44.8041 12.718H25.9536C25.43 12.718 24.9769 12.5267 24.5942 12.1441C24.2317 11.7614 24.0504 11.3083 24.0504 10.7846C24.0504 10.261 24.2317 9.81795 24.5942 9.45545C24.9769 9.0728 25.43 8.88147 25.9536 8.88147H44.8041Z" fill="#226E83"/>
<path d="M75.455 4.13865H56.3024C55.7587 4.13865 55.2955 4.25948 54.9128 4.50115C54.5503 4.74283 54.2784 5.05499 54.0972 5.43764C53.9159 5.80015 53.8253 6.20293 53.8253 6.646C53.8253 7.06893 53.9159 7.47171 54.0972 7.85436C54.2784 8.21687 54.5503 8.51896 54.9128 8.76064C55.2955 9.00231 55.7587 9.12315 56.3024 9.12315H63.2505C64.1165 9.12315 64.9221 9.28426 65.6672 9.60649C66.4325 9.92872 67.0971 10.3718 67.661 10.9357C68.2249 11.4996 68.668 12.1642 68.9902 12.9295C69.3125 13.6746 69.4736 14.4802 69.4736 15.3462C69.4736 16.2122 69.3125 17.0279 68.9902 17.7932C68.668 18.5383 68.2249 19.1928 67.661 19.7567C67.0971 20.3206 66.4325 20.7738 65.6672 21.1162C64.9221 21.4384 64.1165 21.5995 63.2505 21.5995H51.5294V17.8536H63.2505C63.7943 17.8536 64.2474 17.7327 64.6099 17.4911C64.9724 17.2494 65.2443 16.9473 65.4256 16.5848C65.6068 16.2021 65.6974 15.7994 65.6974 15.3764C65.6974 14.9334 65.6068 14.5306 65.4256 14.1681C65.2443 13.7854 64.9724 13.4733 64.6099 13.2316C64.2474 12.9899 63.7943 12.8691 63.2505 12.8691H56.1212C55.2753 12.8489 54.4798 12.6777 53.7347 12.3555C53.0096 12.0131 52.3752 11.56 51.8315 10.9961C51.2877 10.4322 50.8547 9.77768 50.5325 9.03252C50.2103 8.26722 50.0491 7.46165 50.0491 6.61579C50.0491 5.7498 50.2103 4.94422 50.5325 4.19906C50.8749 3.43377 51.328 2.76917 51.8919 2.20526C52.4558 1.64136 53.1103 1.19829 53.8555 0.876063C54.6208 0.553833 55.4364 0.392718 56.3024 0.392718H86.0886V4.13865H79.2009V21.5995H75.455V4.13865Z" fill="#226E83"/>
<path d="M97.3497 0.181254C98.84 0.181254 100.24 0.463205 101.549 1.02711C102.858 1.59101 104.006 2.36638 104.993 3.35321C105.979 4.3199 106.755 5.46784 107.319 6.79705C107.883 8.10611 108.165 9.50579 108.165 10.9961C108.165 12.4864 107.883 13.8861 107.319 15.1952C106.755 16.5042 105.979 17.6522 104.993 18.639C104.006 19.6258 102.858 20.4012 101.549 20.9651C100.24 21.529 98.84 21.811 97.3497 21.811C95.8594 21.811 94.4497 21.529 93.1205 20.9651C91.8114 20.4012 90.6635 19.6258 89.6766 18.639C88.7099 17.6522 87.9446 16.5042 87.3807 15.1952C86.8168 13.8861 86.5349 12.4864 86.5349 10.9961C86.5349 9.50579 86.8168 8.10611 87.3807 6.79705C87.9446 5.46784 88.7099 4.3199 89.6766 3.35321C90.6635 2.36638 91.8114 1.59101 93.1205 1.02711C94.4497 0.463205 95.8594 0.181254 97.3497 0.181254ZM97.3497 18.065C98.3164 18.065 99.2227 17.8838 100.069 17.5213C100.935 17.1386 101.69 16.6251 102.334 15.9806C102.979 15.316 103.482 14.5608 103.845 13.7149C104.227 12.8489 104.419 11.9326 104.419 10.9659C104.419 9.99921 104.227 9.09294 103.845 8.24708C103.482 7.38109 102.979 6.63593 102.334 6.01161C101.69 5.36715 100.935 4.86366 100.069 4.50115C99.2227 4.11851 98.3164 3.92718 97.3497 3.92718C96.383 3.92718 95.4667 4.11851 94.6007 4.50115C93.7549 4.86366 93.0097 5.36715 92.3652 6.01161C91.7208 6.63593 91.2072 7.38109 90.8246 8.24708C90.4621 9.09294 90.2808 9.99921 90.2808 10.9659C90.2808 11.9326 90.4621 12.8489 90.8246 13.7149C91.2072 14.5608 91.7208 15.316 92.3652 15.9806C93.0097 16.6251 93.7549 17.1386 94.6007 17.5213C95.4667 17.8838 96.383 18.065 97.3497 18.065Z" fill="#226E83"/>
<path d="M110.896 15.3462C110.896 14.4802 111.057 13.6746 111.379 12.9295C111.701 12.1642 112.144 11.4996 112.708 10.9357C113.272 10.3718 113.927 9.92872 114.672 9.60649C115.437 9.28426 116.253 9.12315 117.119 9.12315H122.164C122.707 9.12315 123.161 9.00231 123.523 8.76064C123.886 8.51896 124.157 8.21687 124.339 7.85436C124.52 7.47171 124.611 7.06893 124.611 6.646C124.611 6.20293 124.52 5.80015 124.339 5.43764C124.157 5.05499 123.886 4.74283 123.523 4.50115C123.161 4.25948 122.707 4.13865 122.164 4.13865H110.896V0.392718H122.164C123.493 0.392718 124.641 0.735088 125.608 1.41983C126.594 2.10457 127.319 2.96049 127.783 3.9876C128.266 5.01471 128.457 6.12238 128.357 7.3106C128.256 8.49882 127.783 9.59642 126.937 10.6034C127.662 11.2277 128.195 11.9326 128.538 12.718C128.9 13.5035 129.092 14.309 129.112 15.1348C129.132 15.9403 129.001 16.7358 128.719 17.5213C128.437 18.2866 128.024 18.9713 127.48 19.5755C126.937 20.1797 126.272 20.6731 125.487 21.0557C124.721 21.4182 123.855 21.5995 122.889 21.5995H110.896V15.3462ZM122.889 17.8536C123.432 17.8536 123.886 17.7327 124.248 17.4911C124.631 17.2494 124.913 16.9473 125.094 16.5848C125.275 16.2021 125.366 15.7994 125.366 15.3764C125.366 14.9334 125.275 14.5306 125.094 14.1681C124.913 13.7854 124.631 13.4733 124.248 13.2316C123.886 12.9899 123.432 12.8691 122.889 12.8691H117.119C116.414 12.8691 115.82 13.1107 115.336 13.5941C114.873 14.0774 114.642 14.6615 114.642 15.3462V17.8536H122.889Z" fill="#226E83"/>
<path d="M141.174 0.181254C142.664 0.181254 144.064 0.463205 145.373 1.02711C146.682 1.59101 147.83 2.36638 148.817 3.35321C149.804 4.3199 150.579 5.46784 151.143 6.79705C151.707 8.10611 151.989 9.50579 151.989 10.9961C151.989 12.4864 151.707 13.8861 151.143 15.1952C150.579 16.5042 149.804 17.6522 148.817 18.639C147.83 19.6258 146.682 20.4012 145.373 20.9651C144.064 21.529 142.664 21.811 141.174 21.811C139.684 21.811 138.274 21.529 136.945 20.9651C135.636 20.4012 134.488 19.6258 133.501 18.639C132.534 17.6522 131.769 16.5042 131.205 15.1952C130.641 13.8861 130.359 12.4864 130.359 10.9961C130.359 9.50579 130.641 8.10611 131.205 6.79705C131.769 5.46784 132.534 4.3199 133.501 3.35321C134.488 2.36638 135.636 1.59101 136.945 1.02711C138.274 0.463205 139.684 0.181254 141.174 0.181254ZM141.174 18.065C142.141 18.065 143.047 17.8838 143.893 17.5213C144.759 17.1386 145.514 16.6251 146.159 15.9806C146.803 15.316 147.307 14.5608 147.669 13.7149C148.052 12.8489 148.243 11.9326 148.243 10.9659C148.243 9.99921 148.052 9.09294 147.669 8.24708C147.307 7.38109 146.803 6.63593 146.159 6.01161C145.514 5.36715 144.759 4.86366 143.893 4.50115C143.047 4.11851 142.141 3.92718 141.174 3.92718C140.207 3.92718 139.291 4.11851 138.425 4.50115C137.579 4.86366 136.834 5.36715 136.19 6.01161C135.545 6.63593 135.032 7.38109 134.649 8.24708C134.286 9.09294 134.105 9.99921 134.105 10.9659C134.105 11.9326 134.286 12.8489 134.649 13.7149C135.032 14.5608 135.545 15.316 136.19 15.9806C136.834 16.6251 137.579 17.1386 138.425 17.5213C139.291 17.8838 140.207 18.065 141.174 18.065Z" fill="#226E83"/>
<path d="M159.336 4.13865H152.449V0.392718H170V4.13865H163.082V21.5995H159.336V4.13865Z" fill="#226E83"/>
</svg>
